<?xml version="1.0" encoding="UTF-8" standalone="no"?>
<svg
   xmlns:dc="http://purl.org/dc/elements/1.1/"
   xmlns:cc="http://creativecommons.org/ns#"
   xmlns:rdf="http://www.w3.org/1999/02/22-rdf-syntax-ns#"
   xmlns:svg="http://www.w3.org/2000/svg"
   xmlns="http://www.w3.org/2000/svg"
   xmlns:sodipodi="http://sodipodi.sourceforge.net/DTD/sodipodi-0.dtd"
   xmlns:inkscape="http://www.inkscape.org/namespaces/inkscape"
   id="github"
   class="custom-icon"
   version="1.1"
   viewBox="0 0 100 100"
   sodipodi:docname="github.svg"
   inkscape:version="1.0 (4035a4fb49, 2020-05-01)">
  <metadata
     id="metadata11">
    <rdf:RDF>
      <cc:Work
         rdf:about="">
        <dc:format>image/svg+xml</dc:format>
        <dc:type
           rdf:resource="http://purl.org/dc/dcmitype/StillImage" />
        <dc:title></dc:title>
      </cc:Work>
    </rdf:RDF>
  </metadata>
  <defs
     id="defs9" />
  <sodipodi:namedview
     inkscape:document-rotation="0"
     pagecolor="#ffffff"
     bordercolor="#666666"
     borderopacity="1"
     objecttolerance="10"
     gridtolerance="10"
     guidetolerance="10"
     inkscape:pageopacity="0"
     inkscape:pageshadow="2"
     inkscape:window-width="3840"
     inkscape:window-height="2097"
     id="namedview7"
     showgrid="false"
     inkscape:zoom="10.08"
     inkscape:cx="50"
     inkscape:cy="50"
     inkscape:window-x="6008"
     inkscape:window-y="-8"
     inkscape:window-maximized="1"
     inkscape:current-layer="github" />
  <circle
     class="outer-shape"
     cx="50"
     cy="50"
     style="opacity:1;fill:#67a7b8;fill-opacity:1"
     id="circle2"
     r="48" />
  <path
     class="inner-shape"
     style="opacity:1;fill:#f7f7f7;stroke-width:0.5"
     d="m 50.000001,15.000001 c -19.33,0 -35,15.669999 -35,34.999999 0,19.329999 15.67,35 35,35 C 69.33,85 85,69.329999 85,50.000001 c 0,-19.33 -15.670001,-35 -34.999999,-35 z m 20.784998,55.784997 c -2.701427,2.701431 -5.845714,4.821431 -9.344999,6.302144 -0.889287,0.375715 -1.792144,0.706429 -2.707143,0.990714 v -5.245715 c 0,-2.757142 -0.945715,-4.784999 -2.837143,-6.083571 1.185001,-0.114286 2.272857,-0.27357 3.264286,-0.478571 0.991429,-0.204999 2.039285,-0.501428 3.144285,-0.889285 1.105,-0.387858 2.096429,-0.849287 2.973572,-1.384287 0.877143,-0.535714 1.720715,-1.230713 2.529285,-2.084999 0.808572,-0.854287 1.487143,-1.822858 2.033571,-2.905001 0.54643,-1.082142 0.980001,-2.381428 1.298573,-3.896427 0.31857,-1.515 0.478571,-3.184287 0.478571,-5.007144 0,-3.532142 -1.150714,-6.539284 -3.452142,-9.023571 C 69.213571,38.344999 69.1,35.371428 67.824286,32.158571 l -0.855001,-0.102145 c -0.592142,-0.06858 -1.657856,0.182144 -3.195713,0.752142 -1.537858,0.57 -3.264286,1.503572 -5.177858,2.802859 -2.712142,-0.752144 -5.525714,-1.127858 -8.442857,-1.127858 -2.939286,0 -5.742143,0.375714 -8.408571,1.127858 -1.207144,-0.820716 -2.352858,-1.497858 -3.435,-2.033573 C 37.227142,33.042141 36.361427,32.677855 35.711429,32.48357 35.062142,32.289998 34.458571,32.169999 33.9,32.124284 c -0.558571,-0.04572 -0.917143,-0.05643 -1.07643,-0.03429 -0.159284,0.02215 -0.27357,0.04572 -0.341427,0.06858 -1.276428,3.235715 -1.39,6.21 -0.341429,8.920715 -2.301428,2.483572 -3.452142,5.491428 -3.452142,9.023571 0,1.822857 0.159284,3.492144 0.478572,5.007144 0.319285,1.514999 0.752141,2.814285 1.29857,3.896427 0.546429,1.082143 1.225,2.050714 2.033571,2.905001 0.808572,0.854285 1.652144,1.549285 2.529285,2.084999 0.877145,0.536429 1.868572,0.997142 2.973574,1.384287 1.104999,0.387856 2.152858,0.683571 3.144284,0.889285 0.991429,0.205 2.079287,0.364999 3.264286,0.478571 -1.86857,1.276428 -2.802857,3.304286 -2.802857,6.083571 v 5.347858 c -1.032142,-0.307142 -2.049285,-0.67 -3.048571,-1.092857 -3.499286,-1.480714 -6.643572,-3.600714 -9.345,-6.302144 -2.701429,-2.701427 -4.821429,-5.845713 -6.302143,-9.344999 -1.530715,-3.62 -2.307143,-7.468571 -2.307143,-11.439999 0,-3.97143 0.776428,-7.82 2.307857,-11.440001 1.480714,-3.499286 3.600714,-6.643572 6.302143,-9.344999 2.701428,-2.70143 5.845714,-4.82143 9.344999,-6.302143 C 42.18,21.381432 46.028571,20.605004 50,20.605004 c 3.971428,0 7.819999,0.776428 11.44,2.307856 3.499999,1.480714 6.643571,3.600713 9.344999,6.302144 2.701429,2.701427 4.82143,5.845712 6.302144,9.344999 1.530714,3.620714 2.307141,7.469286 2.307141,11.440001 0,3.970713 -0.776427,7.819999 -2.307856,11.439999 -1.480714,3.499286 -3.600714,6.643572 -6.301429,9.344999 z"
     id="path4" />
</svg>
