<?xml version="1.0" encoding="UTF-8" standalone="no"?>
<svg
   xmlns:dc="http://purl.org/dc/elements/1.1/"
   xmlns:cc="http://creativecommons.org/ns#"
   xmlns:rdf="http://www.w3.org/1999/02/22-rdf-syntax-ns#"
   xmlns:svg="http://www.w3.org/2000/svg"
   xmlns="http://www.w3.org/2000/svg"
   xmlns:sodipodi="http://sodipodi.sourceforge.net/DTD/sodipodi-0.dtd"
   xmlns:inkscape="http://www.inkscape.org/namespaces/inkscape"
   inkscape:version="1.0 (4035a4fb49, 2020-05-01)"
   sodipodi:docname="linkedin.svg"
   viewBox="0 0 100 100"
   version="1.1"
   class="custom-icon"
   id="linkedin">
  <metadata
     id="metadata11">
    <rdf:RDF>
      <cc:Work
         rdf:about="">
        <dc:format>image/svg+xml</dc:format>
        <dc:type
           rdf:resource="http://purl.org/dc/dcmitype/StillImage" />
        <dc:title></dc:title>
      </cc:Work>
    </rdf:RDF>
  </metadata>
  <defs
     id="defs9" />
  <sodipodi:namedview
     inkscape:current-layer="linkedin"
     inkscape:window-maximized="1"
     inkscape:window-y="-8"
     inkscape:window-x="-8"
     inkscape:cy="50"
     inkscape:cx="50"
     inkscape:zoom="10.08"
     showgrid="false"
     id="namedview7"
     inkscape:window-height="2097"
     inkscape:window-width="4096"
     inkscape:pageshadow="2"
     inkscape:pageopacity="0"
     guidetolerance="10"
     gridtolerance="10"
     objecttolerance="10"
     borderopacity="1"
     bordercolor="#666666"
     pagecolor="#ffffff" />
  <circle
     r="48"
     id="circle2"
     style="opacity:1;fill:#67a7b8;fill-opacity:1"
     cy="50"
     cx="50"
     class="outer-shape" />
  <path
     id="path4"
     d="M 68.261683,22.5 H 31.738316 C 26.657551,22.5 22.5,26.657551 22.5,31.738316 V 68.261683 C 22.5,73.34245 26.657551,77.5 31.738316,77.5 H 68.261683 C 73.34245,77.5 77.5,73.34245 77.5,68.261683 V 31.738316 C 77.5,26.657551 73.34245,22.5 68.261683,22.5 Z M 43.125,67.1875 H 36.25 V 43.125 h 6.875 z m -3.4375,-27.5 c -1.898623,0 -3.4375,-1.538877 -3.4375,-3.4375 0,-1.898623 1.538877,-3.4375 3.4375,-3.4375 1.898622,0 3.4375,1.538877 3.4375,3.4375 0,1.898622 -1.538877,3.4375 -3.4375,3.4375 z m 27.5,27.5 h -6.875 v -13.75 C 60.3125,51.538878 58.773622,50 56.875,50 c -1.898622,0 -3.4375,1.538877 -3.4375,3.4375 v 13.75 h -6.875 V 43.125 h 6.875 v 4.268674 c 1.417653,-1.94745 3.585663,-4.268674 6.015766,-4.268674 4.272041,0 7.734795,3.847755 7.734795,8.593469 z"
     style="opacity:1;fill:#f7f7f7;stroke-width:0.5"
     class="inner-shape" />
</svg>
